# xmcd
#
# Track frame offsets:
#	150
#	60577
#	78677
#	113899
#	131884
#	160917
#	196152
#
# Disc length: 3495 seconds
#
# Revision: 1
# Processed by: cddbd v1.5.2PL0 Copyright (c) Steve Scherf et al.
# Submitted via: audiograbber 1.83.01
#
DISCID=5d0da507
DTITLE=Grateful Dead - 68-12-07 Bellarmine College, Louisville KY
DYEAR=1900
DGENRE=
TTITLE0=Dark Star
TTITLE1=St Stephen
TTITLE2=The Eleven Jam
TTITLE3=Death Don't Have No Mercy
TTITLE4=The Other One
TTITLE5=Cryptical Envelopment
TTITLE6=New Potato Caboose
EXTD=
EXTT0=
EXTT1=
EXTT2=
EXTT3=
EXTT4=
EXTT5=
EXTT6=
PLAYORDER=
